<svg xmlns="http://www.w3.org/2000/svg" data-name="Layer 1" viewBox="0 0 128 160" x="0px" y="0px"><title>Artboard 90</title><rect x="64" y="60" width="24" height="4"/><rect x="64" y="30" width="24" height="22"/><path d="M64,0A52,52,0,0,0,46,100.8l14.68,25.27a4,4,0,0,0,6.64,0L82,100.8A52,52,0,0,0,64,0ZM44,55.3V74a4,4,0,0,1-8,0V55.3a12,12,0,1,1,8,0ZM96,68a4,4,0,0,1-4,4H88v6a4,4,0,0,1-8,0V72H72v6a4,4,0,0,1-8,0V72H60a4,4,0,0,1-4-4V26a4,4,0,0,1,4-4H92a4,4,0,0,1,4,4Z"/><circle cx="40" cy="44" r="4"/><text x="0" y="143" fill="#000000" font-size="5px" font-weight="bold" font-family="'Helvetica Neue', Helvetica, Arial-Unicode, Arial, Sans-serif">Created by Juraj Sedlák</text><text x="0" y="148" fill="#000000" font-size="5px" font-weight="bold" font-family="'Helvetica Neue', Helvetica, Arial-Unicode, Arial, Sans-serif">from the Noun Project</text></svg>